<?xml version="1.0" encoding="UTF-8" standalone="no"?>
<svg
   width="613.96167"
   height="121.92174"
   viewBox="0 0 613.96167 121.92174"
   fill="none"
   version="1.1"
   id="svg6"
   sodipodi:docname="doublecloud.svg"
   inkscape:version="1.1.1 (3bf5ae0d25, 2021-09-20)"
   xmlns:inkscape="http://www.inkscape.org/namespaces/inkscape"
   xmlns:sodipodi="http://sodipodi.sourceforge.net/DTD/sodipodi-0.dtd"
   xmlns="http://www.w3.org/2000/svg"
   xmlns:svg="http://www.w3.org/2000/svg">
  <defs
     id="defs10" />
  <sodipodi:namedview
     id="namedview8"
     pagecolor="#ffffff"
     bordercolor="#666666"
     borderopacity="1.0"
     inkscape:pageshadow="2"
     inkscape:pageopacity="0.0"
     inkscape:pagecheckerboard="0"
     showgrid="false"
     fit-margin-top="0"
     fit-margin-left="0"
     fit-margin-right="0"
     fit-margin-bottom="0"
     inkscape:zoom="1.0793103"
     inkscape:cx="183.91374"
     inkscape:cy="63.466454"
     inkscape:window-width="1920"
     inkscape:window-height="1051"
     inkscape:window-x="-9"
     inkscape:window-y="-9"
     inkscape:window-maximized="1"
     inkscape:current-layer="svg6" />
  <path
     fill-rule="evenodd"
     clip-rule="evenodd"
     d="m 50.579881,39.800679 c 0.02272,-3.408961 -0.881526,-6.762052 -2.620144,-9.714347 -1.738124,-2.952174 -4.247754,-5.396724 -7.269919,-7.081925 L 0,0 v 14.092999 l 34.472474,19.507403 c 1.1082,0.636679 2.027055,1.54657 2.665698,2.638931 0.638398,1.092728 0.974358,2.329983 0.974358,3.589341 0,1.259482 -0.33596,2.496615 -0.974358,3.589343 -0.638643,1.092484 -1.557498,2.002252 -2.665698,2.639053 L 0,65.572578 V 79.665331 L 40.689818,56.628754 c 3.027199,-1.687659 5.53953,-4.137366 7.278392,-7.095801 1.738494,-2.958067 2.640282,-6.317911 2.611671,-9.732274 z M 30.332653,82.12081 c -0.02088,3.408589 0.884105,6.761189 2.622353,9.713119 1.738248,2.95192 4.246896,5.39672 7.267833,7.08266 l 40.68994,23.005151 V 107.86078 L 46.448164,88.345399 c -1.105991,-0.63729 -2.023249,-1.54718 -2.660664,-2.63856 -0.63717,-1.09187 -0.972516,-2.32778 -0.972516,-3.586029 0,-1.257884 0.335346,-2.493913 0.972516,-3.585659 0.637415,-1.09187 1.554673,-2.001392 2.660664,-2.638684 L 80.912779,56.381205 V 42.288082 l -40.68994,23.036701 c -3.020937,1.68643 -5.529585,4.131226 -7.267833,7.083276 -1.738248,2.951928 -2.643228,6.304405 -2.622353,9.712751 z M 128.40025,31.283925 h 19.34716 c 16.53276,0 30.58757,9.697279 30.58757,29.244713 0,19.547557 -14.05481,29.237471 -30.58757,29.237471 h -19.34716 z m 11.24901,48.872454 h 7.15756 v -0.03205 c 10.31578,0 20.11585,-5.16575 20.11585,-19.627617 0,-14.462235 -9.80007,-19.724009 -20.11585,-19.724009 h -7.15756 z m 65.65583,-33.200837 c -13.08844,0 -22.49555,9.192234 -22.49555,21.721104 0,12.52887 9.37396,21.729213 22.49555,21.729213 13.12159,0 22.41574,-9.192484 22.41574,-21.729213 0,-12.537097 -9.37519,-21.721104 -22.41574,-21.721104 z m 0,34.586793 c -7.15756,0 -11.92682,-5.261774 -11.92682,-12.83364 0,-7.571989 4.76926,-12.833764 11.92682,-12.833764 7.15879,0 11.84578,5.261775 11.84578,12.833764 0,7.571866 -4.76926,12.83364 -11.84578,12.83364 z m 47.34013,-0.264249 c 5.88175,0 9.97196,-4.507706 9.97196,-10.692142 V 47.589519 h 10.4791 v 42.11028 h -10.4791 v -6.512783 c -2.37972,4.627923 -7.23984,7.218843 -13.37454,7.218843 -9.71901,0 -16.01703,-6.85796 -16.01703,-16.715848 V 47.621568 h 10.4791 v 23.878688 c 0,5.767187 3.57449,9.77783 8.94051,9.77783 z m 51.96325,-34.324017 c -5.62018,0 -10.1365,2.342018 -12.60709,5.767064 v -23.14881 h -10.38086 v 60.158176 h 10.39806 v -5.26178 c 2.45339,3.67284 7.23984,5.93591 12.44254,5.93591 12.85759,0 20.44984,-8.823614 20.44984,-21.729579 0,-12.905843 -7.60698,-21.720981 -20.30249,-21.720981 z m -1.71785,34.586671 c -6.98688,0 -11.59159,-5.093181 -11.59159,-12.833641 0,-7.740461 4.60471,-12.833641 11.59159,-12.833641 6.98566,0 11.59037,5.101407 11.59037,12.833641 0,7.732478 -4.58875,12.833641 -11.59037,12.833641 z m 28.41046,-51.968417 h 10.39929 V 89.730499 H 331.30108 Z M 369.71421,81.8794 c -6.64183,0 -11.07587,-4.347708 -11.83595,-11.10939 h 31.72463 c 0.11786,-1.167387 0.17435,-2.339931 0.17066,-3.513088 0,-10.026486 -6.47115,-20.30138 -20.87592,-20.30138 -14.05358,0 -21.04906,10.427279 -21.04906,21.55251 0,11.125231 7.84643,21.897807 21.90001,21.897807 10.56997,0 18.57848,-5.76744 20.19934,-14.710894 H 379.723 c -1.14073,4.010643 -4.63295,6.184435 -10.00879,6.184435 z m -0.81657,-27.271808 c 6.22558,0 9.97442,4.010642 10.39928,9.360459 h -21.1645 c 1.10515,-6.320367 4.86258,-9.360459 10.73821,-9.360459 z m 70.40176,-3.642635 c -0.84972,-6.432844 -7.15634,-10.860367 -15.16854,-10.860367 -10.3956,0 -18.26413,7.10636 -18.26413,20.389297 0,13.282939 7.83415,20.301626 18.23343,20.301626 8.17919,0 14.52018,-4.427892 15.54427,-10.780553 h 11.24655 c -1.19475,12.11199 -12.0975,20.389669 -26.76013,20.389669 -15.84512,0 -29.56347,-10.018138 -29.56347,-29.910742 0,-19.892235 13.97376,-29.918597 29.56348,-29.918597 14.40846,0 25.29522,8.277799 26.93082,20.389667 z m 28.81322,-21.392634 h -10.39928 v 60.158176 h 10.39928 z m 6.16049,39.104323 c 0,-12.52887 9.40835,-21.721104 22.49556,-21.721104 13.00739,0 22.40713,9.184007 22.40713,21.721104 0,12.536729 -9.28432,21.729213 -22.40714,21.729213 -13.12159,0 -22.49556,-9.200343 -22.49555,-21.729213 z m 10.56873,0.03205 c 0,7.571867 4.77048,12.833641 11.92683,12.833641 7.03599,0 11.84577,-5.261774 11.84577,-12.833641 0,-7.571988 -4.68821,-12.833763 -11.84577,-12.833763 -7.15635,0 -11.92683,5.261775 -11.92683,12.833763 z m 69.18856,1.87725 c 0,6.184436 -4.09022,10.692142 -9.97074,10.692142 -5.36847,0 -8.94295,-4.010643 -8.94295,-9.77783 V 47.621566 H 524.6462 v 26.068445 c 0,9.857888 6.30661,16.715848 16.02562,16.715848 6.13594,0 10.98624,-2.59092 13.37331,-7.218843 v 6.512783 h 10.48033 V 47.589519 H 554.0304 Z M 603.56606,52.721131 V 29.572323 h 10.3956 v 60.158176 h -10.3956 v -5.26178 c -2.47181,3.67284 -7.24107,5.93591 -12.44255,5.93591 -12.87108,0 -20.45351,-8.831596 -20.45351,-21.729579 0,-12.897861 7.58242,-21.720981 20.27914,-21.720981 5.63004,0 10.16107,2.342018 12.61692,5.767064 z m -22.49677,15.985966 c 0,7.740459 4.5961,12.83364 11.59159,12.83364 6.98566,0 11.58177,-5.101162 11.58177,-12.83364 0,-7.732234 -4.58875,-12.833641 -11.58177,-12.833641 -6.99549,0 -11.59159,5.09318 -11.59159,12.833641 z"
     fill="#000000"
     id="path4"
     style="stroke-width:1.22792" />
</svg>
