<?xml version="1.0" encoding="UTF-8" standalone="no"?>
<svg
   width="498.42108"
   height="150"
   viewBox="0 0 498.42108 150"
   fill="none"
   version="1.1"
   id="svg32"
   sodipodi:docname="wandb-abb.svg"
   inkscape:version="1.1.1 (3bf5ae0d25, 2021-09-20)"
   xmlns:inkscape="http://www.inkscape.org/namespaces/inkscape"
   xmlns:sodipodi="http://sodipodi.sourceforge.net/DTD/sodipodi-0.dtd"
   xmlns="http://www.w3.org/2000/svg"
   xmlns:svg="http://www.w3.org/2000/svg">
  <defs
     id="defs36" />
  <sodipodi:namedview
     id="namedview34"
     pagecolor="#ffffff"
     bordercolor="#666666"
     borderopacity="1.0"
     inkscape:pageshadow="2"
     inkscape:pageopacity="0.0"
     inkscape:pagecheckerboard="true"
     showgrid="false"
     fit-margin-top="15"
     fit-margin-left="15"
     fit-margin-right="15"
     fit-margin-bottom="15"
     inkscape:zoom="1"
     inkscape:cx="249.5"
     inkscape:cy="74.5"
     inkscape:window-width="1920"
     inkscape:window-height="1051"
     inkscape:window-x="-9"
     inkscape:window-y="-9"
     inkscape:window-maximized="1"
     inkscape:current-layer="svg32" />
  <path
     d="m 15,53.76 c 0,6.85 5.553011,12.403 12.402971,12.403 6.85,0 12.403,-5.553 12.403,-12.403 0,-6.85 -5.553,-12.403 -12.403,-12.403 C 20.553011,41.357 15,46.91 15,53.76 Z"
     fill="#ffcc33"
     id="path2" />
  <path
     d="m 15,115.775 c 0,6.85 5.553011,12.403 12.402971,12.403 6.85,0 12.403,-5.553 12.403,-12.403 0,-6.8501 -5.553,-12.4031 -12.403,-12.4031 C 20.553011,103.3719 15,108.9249 15,115.775 Z"
     fill="#ffcc33"
     id="path4" />
  <path
     d="m 19.651111,84.7681 c 0,4.2813 3.47069,7.752 7.75196,7.752 4.2813,0 7.752,-3.4707 7.752,-7.752 0,-4.2813 -3.4707,-7.752 -7.752,-7.752 -4.28127,0 -7.75196,3.4707 -7.75196,7.752 z"
     fill="#ffcc33"
     id="path6" />
  <path
     d="m 19.651111,22.75199 c 0,4.28131 3.47069,7.75201 7.75196,7.75201 4.2813,0 7.752,-3.4707 7.752,-7.75201 0,-4.2813 -3.4707,-7.75199 -7.752,-7.75199 -4.28127,0 -7.75196,3.47069 -7.75196,7.75199 z"
     fill="#ffcc33"
     id="path8" />
  <path
     d="m 62.596771,96.24 c 0,6.8499 5.553,12.403 12.403,12.403 6.85,0 12.403,-5.5531 12.403,-12.403 0,-6.85 -5.553,-12.403 -12.403,-12.403 -6.85,0 -12.403,5.553 -12.403,12.403 z"
     fill="#ffcc33"
     id="path10" />
  <path
     d="m 67.247871,127.248 c 0,4.281 3.4707,7.752 7.752,7.752 4.2813,0 7.752,-3.471 7.752,-7.752 0,-4.281 -3.4707,-7.752 -7.752,-7.752 -4.2813,0 -7.752,3.471 -7.752,7.752 z"
     fill="#ffcc33"
     id="path12" />
  <path
     d="m 67.247871,65.2329 c 0,4.2813 3.4707,7.752 7.752,7.752 4.2813,0 7.752,-3.4707 7.752,-7.752 0,-4.2813 -3.4707,-7.752 -7.752,-7.752 -4.2813,0 -7.752,3.4707 -7.752,7.752 z"
     fill="#ffcc33"
     id="path14" />
  <path
     d="m 67.247871,34.2249 c 0,4.2813 3.4707,7.752 7.752,7.752 4.2813,0 7.752,-3.4707 7.752,-7.752 0,-4.2813 -3.4707,-7.752 -7.752,-7.752 -4.2813,0 -7.752,3.4707 -7.752,7.752 z"
     fill="#ffcc33"
     id="path16" />
  <path
     d="m 110.19387,53.76 c 0,6.85 5.5532,12.403 12.4032,12.403 6.85,0 12.403,-5.553 12.403,-12.403 0,-6.85 -5.553,-12.403 -12.403,-12.403 -6.85,0 -12.4032,5.553 -12.4032,12.403 z"
     fill="#ffcc33"
     id="path18" />
  <path
     d="m 114.84497,22.75199 c 0,4.28131 3.4711,7.75201 7.7521,7.75201 4.281,0 7.752,-3.4707 7.752,-7.75201 0,-4.2813 -3.471,-7.75199 -7.752,-7.75199 -4.281,0 -7.7521,3.47069 -7.7521,7.75199 z"
     fill="#ffcc33"
     id="path20" />
  <path
     d="m 114.84497,84.7681 c 0,4.2813 3.4711,7.752 7.7521,7.752 4.281,0 7.752,-3.4707 7.752,-7.752 0,-4.2813 -3.471,-7.752 -7.752,-7.752 -4.281,0 -7.7521,3.4707 -7.7521,7.752 z"
     fill="#ffcc33"
     id="path22" />
  <path
     d="m 114.84497,115.775 c 0,4.281 3.4711,7.752 7.7521,7.752 4.281,0 7.752,-3.471 7.752,-7.752 0,-4.2813 -3.471,-7.752 -7.752,-7.752 -4.281,0 -7.7521,3.4707 -7.7521,7.752 z"
     fill="#ffcc33"
     id="path24" />
  <path
     d="m 257.10707,124.139 h 6.169 l 24.247,-89.3829 12.051,-1.7217 v -5.8823 h -32.567 v 5.8823 l 13.055,1.8652 -18.22,66.284 -21.377,-66.4275 14.49,-1.7217 v -5.8823 h -39.023 v 5.8823 l 14.347,1.7217 -21.808,65.8537 -17.647,-65.9972 13.2,-1.5782 v -5.8823 h -39.024 v 5.8823 l 11.908,1.4348 25.824,89.6698 h 6.17 l 23.385,-74.4618 z"
     fill="#000000"
     id="path26" />
  <path
     d="m 327.94007,59.5768 c -5.309,-6.5998 -6.457,-11.0474 -6.457,-16.2124 0,-7.604 5.739,-13.3429 13.056,-13.3429 7.03,0 12.482,5.165 12.482,13.4864 0,8.3214 -6.313,14.6341 -15.208,20.8034 -1.291,-1.4347 -2.582,-3.0129 -3.873,-4.7345 z m 64.274,63.9882 0.574,-6.312 -13.917,-1.866 c -4.447,-4.5907 -8.178,-8.7514 -11.764,-12.4817 6.599,-9.8996 11.621,-20.5165 14.921,-33.5725 l 10.903,-2.0086 v -5.7388 h -29.124 v 5.7388 l 11.334,1.8652 c -2.582,11.3343 -6.6,20.66 -11.908,29.5552 -5.595,-6.0258 -10.76,-11.4777 -16.499,-17.7905 -5.021,-5.452 -8.465,-9.3257 -11.477,-12.769 14.633,-7.891 21.233,-14.9211 21.233,-24.8207 0,-10.7604 -7.604,-18.3644 -21.807,-18.3644 -13.486,0 -23.529,7.7475 -23.529,20.373 0,7.604 2.726,14.9211 9.899,23.099 0.144,0.287 0.43,0.4304 0.574,0.7174 -14.347,7.1736 -21.664,16.7862 -21.664,29.6987 0,14.4907 12.338,26.1119 30.272,26.1119 13.773,0 22.955,-5.308 29.268,-12.1951 1.578,1.8651 3.3,3.5871 5.021,5.5951 4.735,4.878 9.182,6.6 16.786,6.6 3.73,0 6.6,-0.43 10.904,-1.435 z m -51.506,-31.8505 c 4.878,5.4519 9.469,10.6169 14.634,16.4993 -5.452,4.878 -13.199,7.6042 -21.233,7.6042 -13.917,0 -21.664,-10.3302 -21.664,-20.8037 0,-7.1736 2.726,-15.7819 12.625,-21.8077 4.735,5.4519 9.182,10.6169 15.638,18.5079 z"
     fill="#000000"
     id="path28" />
  <path
     d="m 419.14707,78.6585 c 0,12.4821 0,24.9642 -0.287,37.0155 l -13.199,1.579 v 5.882 h 39.454 c 27.546,0 38.306,-13.1996 38.306,-26.2555 0,-11.6212 -8.034,-20.9469 -27.116,-23.6729 15.925,-3.2999 22.238,-12.4821 22.238,-22.6686 0,-13.6298 -11.334,-23.3859 -31.276,-23.3859 h -41.606 v 5.8823 l 13.199,1.5782 c 0.287,12.3386 0.287,24.6772 0.287,37.0158 z m 21.52,-1.8651 c 19.799,0 28.407,6.7432 28.407,20.0861 0,12.6255 -8.895,19.5125 -27.259,19.5125 h -8.752 c -0.287,-12.1954 -0.287,-24.534 -0.287,-39.5986 z m 2.296,-43.0416 c 14.634,0 22.094,4.7346 22.094,17.7905 0,13.056 -7.46,18.6514 -24.82,18.6514 h -7.461 c 0,-11.3343 0,-24.1033 0.287,-36.4419 z"
     fill="#000000"
     id="path30" />
</svg>
